<?xml version="1.0" standalone="no"?>
<!DOCTYPE svg PUBLIC "-//W3C//DTD SVG 20010904//EN"
 "http://www.w3.org/TR/2001/REC-SVG-20010904/DTD/svg10.dtd">
<svg version="1.0" xmlns="http://www.w3.org/2000/svg"
 width="512.000000pt" height="512.000000pt" viewBox="0 0 512.000000 512.000000"
 preserveAspectRatio="xMidYMid meet">

<g transform="translate(0.000000,512.000000) scale(0.100000,-0.100000)"
fill="#901c1c" stroke="none">
<path d="M3569 5107 c-25 -7 -65 -25 -90 -39 -63 -38 -2312 -2292 -2337 -2344
-11 -22 -26 -68 -33 -102 -16 -75 -2 -160 37 -233 17 -31 394 -414 1172 -1191
1290 -1288 1182 -1192 1342 -1192 72 0 94 4 147 28 184 84 262 308 171 491
-13 26 -368 388 -1016 1038 l-997 997 997 998 c648 649 1003 1011 1016 1037
115 233 -39 504 -295 521 -40 2 -87 -2 -114 -9z"/>
</g>
</svg>
